<svg xmlns="http://www.w3.org/2000/svg" viewBox="0 0 32 32">
  <!-- Favicon: Globe + Arrow miniature -->
  <defs>
    <linearGradient id="fo" x1="0%" y1="0%" x2="100%" y2="100%">
      <stop offset="0%" stop-color="#2196F3"/>
      <stop offset="100%" stop-color="#1565C0"/>
    </linearGradient>
    <clipPath id="fc"><circle cx="16" cy="16" r="13"/></clipPath>
  </defs>
  <!-- Globe -->
  <circle cx="16" cy="16" r="13" fill="url(#fo)"/>
  <g clip-path="url(#fc)">
    <path d="M 7 7 Q 9 5, 12 6 Q 15 7, 16 9 Q 17 11, 15 13 Q 13 15, 11 14 Q 9 13, 8 11 Q 7 9, 7 7Z" fill="#4CAF50" opacity="0.85"/>
    <path d="M 12 15 Q 13 16, 13 18 Q 12 19, 11 18Z" fill="#4CAF50" opacity="0.85"/>
    <path d="M 12 19 Q 14 18, 16 20 Q 17 23, 16 25 Q 14 27, 12 26 Q 10 24, 10 22 Q 10 20, 12 19Z" fill="#4CAF50" opacity="0.85"/>
  </g>
  <circle cx="16" cy="16" r="13" fill="none" stroke="#0D2B52" stroke-width="1.5"/>
  <!-- Arrow -->
  <path d="M 7 27 Q 3 20, 7 13 Q 11 6, 19 4" stroke="white" stroke-width="4.5" fill="none" stroke-linecap="round" stroke-linejoin="round"/>
  <path d="M 7 27 Q 3 20, 7 13 Q 11 6, 19 4" stroke="#D32F2F" stroke-width="2.8" fill="none" stroke-linecap="round" stroke-linejoin="round"/>
  <polygon points="17.5,1 24,5.5 18.5,6" fill="white"/>
  <polygon points="18,2 23,5.5 19,5.5" fill="#D32F2F"/>
</svg>
