<svg xmlns="http://www.w3.org/2000/svg" viewBox="0 0 32 32">
  <!-- Favicon: Lion Inflexion -->
  <defs>
    <clipPath id="circleClip"><circle cx="16" cy="16" r="13"/></clipPath>
  </defs>
  <!-- Cercle vert -->
  <circle cx="16" cy="16" r="13" fill="none" stroke="#1B5E30" stroke-width="2"/>
  <!-- Tete de lion stylisee -->
  <g fill="#1B5E30" clip-path="url(#circleClip)">
    <!-- Criniere externe -->
    <path d="M16 4 C10 4, 5 8, 5 14 C5 18, 7 22, 10 24 L10 22 C7.5 20, 6.5 16, 7 13 C7.5 9, 11 6, 16 6 C21 6, 24.5 9, 25 13 C25.5 16, 24.5 20, 22 22 L22 24 C25 22, 27 18, 27 14 C27 8, 22 4, 16 4Z"/>
    <!-- Touffes criniere -->
    <path d="M8 10 C7 8, 8 6, 10 5.5 C9 7, 8.5 8.5, 8 10Z"/>
    <path d="M24 10 C25 8, 24 6, 22 5.5 C23 7, 23.5 8.5, 24 10Z"/>
    <path d="M12 5 C12 3.5, 13.5 3, 15 3.5 C13.5 4, 12.5 4.5, 12 5Z"/>
    <path d="M20 5 C20 3.5, 18.5 3, 17 3.5 C18.5 4, 19.5 4.5, 20 5Z"/>
    <!-- Visage -->
    <ellipse cx="16" cy="15" rx="7" ry="8" fill="#2E7D32"/>
    <!-- Yeux -->
    <ellipse cx="13" cy="13" rx="1.3" ry="1" fill="#1B5E30"/>
    <ellipse cx="19" cy="13" rx="1.3" ry="1" fill="#1B5E30"/>
    <!-- Nez -->
    <path d="M14.5 16 L16 17.5 L17.5 16 Z" fill="#1B5E30"/>
    <!-- Museau -->
    <path d="M16 17.5 L16 19" stroke="#1B5E30" stroke-width="0.8" fill="none"/>
    <path d="M13.5 19.5 Q16 21, 18.5 19.5" stroke="#1B5E30" stroke-width="0.7" fill="none"/>
    <!-- Barbe / menton -->
    <path d="M12 20 Q16 26, 20 20" fill="#2E7D32"/>
    <path d="M13 21 Q16 25, 19 21" fill="#1B5E30" opacity="0.3"/>
  </g>
  <!-- Fleche rouge courbee (du bas-gauche vers haut-droit) -->
  <path d="M6 27 Q2 20, 6 13 Q10 6, 18 4" stroke="white" stroke-width="4" fill="none" stroke-linecap="round"/>
  <path d="M6 27 Q2 20, 6 13 Q10 6, 18 4" stroke="#B71C1C" stroke-width="2.5" fill="none" stroke-linecap="round"/>
  <!-- Pointe de fleche -->
  <polygon points="17,1.5 23,5 18,5.5" fill="white"/>
  <polygon points="17.5,2.2 22,5 18.2,5" fill="#B71C1C"/>
</svg>
